<svg width="1515" height="205" viewBox="0 0 1515 205" fill="none" xmlns="http://www.w3.org/2000/svg">
<path d="M141.14 54.144C80.0793 54.144 0 130.141 0 130.141V205H1515V0C1515 0 1457.1 149.865 1425.41 119.413C1346.33 43.4151 1204.19 216.868 1173.66 123.883C1139.78 20.6869 836.221 -28.2558 883.876 96.1662C890.382 113.154 890.037 140.311 788.281 130.141C699.747 121.294 669.748 64.8731 581.076 64.8731C492.403 64.8731 460.356 119.911 371.868 130.141C277.608 141.039 202.2 54.144 141.14 54.144Z" fill="#00ADB5"/>
<path d="M141.14 64.144C80.0793 64.144 0 140.141 0 140.141V205H1515V10C1515 10 1457.1 159.865 1425.41 129.413C1346.33 53.4151 1204.19 226.868 1173.66 133.883C1139.78 30.6869 836.221 -18.2558 883.876 106.166C890.382 123.154 890.037 150.311 788.281 140.141C699.747 131.294 669.748 74.8731 581.076 74.8731C492.403 74.8731 460.356 129.911 371.868 140.141C277.608 151.039 202.2 64.144 141.14 64.144Z" fill="#393E46"/>
<path d="M141.14 74.144C80.0793 74.144 0 150.141 0 150.141V205H1515V20C1515 20 1457.1 169.865 1425.41 139.413C1346.33 63.4151 1204.19 236.868 1173.66 143.883C1139.78 40.6869 836.221 -8.25576 883.876 116.166C890.382 133.154 890.037 160.311 788.281 150.141C699.747 141.294 669.748 84.8731 581.076 84.8731C492.403 84.8731 460.356 139.911 371.868 150.141C277.608 161.039 202.2 74.144 141.14 74.144Z" fill="#222831"/>
</svg>
