<svg width="1515" height="205" viewBox="0 0 1515 205" fill="none" xmlns="http://www.w3.org/2000/svg">
<path d="M141.14 53.7761C80.0793 53.7761 0 129.959 0 129.959V185H1515L1514 0C1514 0 1457.1 149.731 1425.41 119.204C1346.33 43.021 1204.19 216.897 1173.66 123.685C1139.78 20.2374 836.221 -28.8247 883.876 95.9007C890.382 112.93 890.037 140.153 788.281 129.959C699.747 121.089 669.748 64.5313 581.076 64.5313C492.403 64.5313 460.356 119.704 371.868 129.959C277.608 140.883 202.2 53.7761 141.14 53.7761Z" fill="#00ADB5"/>
<path d="M141.14 63.7761C80.0793 63.7761 0 139.959 0 139.959V195H1515L1514 10C1514 10 1457.1 159.731 1425.41 129.204C1346.33 53.021 1204.19 226.897 1173.66 133.685C1139.78 30.2374 836.221 -18.8247 883.876 105.901C890.382 122.93 890.037 150.153 788.281 139.959C699.747 131.089 669.748 74.5313 581.076 74.5313C492.403 74.5313 460.356 129.704 371.868 139.959C277.608 150.883 202.2 63.7761 141.14 63.7761Z" fill="#393E46"/>
<path d="M141.14 73.7761C80.0793 73.7761 0 149.959 0 149.959V205H1515L1514 20C1514 20 1457.1 169.731 1425.41 139.204C1346.33 63.021 1204.19 236.897 1173.66 143.685C1139.78 40.2374 836.221 -8.82468 883.876 115.901C890.382 132.93 890.037 160.153 788.281 149.959C699.747 141.089 669.748 84.5313 581.076 84.5313C492.403 84.5313 460.356 139.704 371.868 149.959C277.608 160.883 202.2 73.7761 141.14 73.7761Z" fill="#222831"/>
</svg>
